# xmcd CD database file
#
# Track frame offsets:
#	150
#	20580
#	35730
#	50789
#	67075
#	81219
#	109867
#	127846
#	151165
#	171125
#	185601
#	214621
#
# Disc length: 3219 seconds
#
# Revision: 0
# Processed by: cddbd v1.5.1PL0 Copyright (c) Steve Scherf et al.
# Submitted via: CDex 1.51
#
DISCID=a60c910c
DTITLE=Captain Legendary Band - Those Songs
DYEAR=2004
DGENRE=Country
TTITLE0=Still The Same
TTITLE1=Heartbroke Bank Robbery
TTITLE2=4 Walls
TTITLE3=LA Moonshine
TTITLE4=Those Songs
TTITLE5=Another Day
TTITLE6=Kemah Bay
TTITLE7=Cold Texas Night
TTITLE8=P and WT
TTITLE9=Not Tonight
TTITLE10=The Captain
TTITLE11=West TX Prayer
EXTD=YEAR: 2004
EXTT0=
EXTT1=
EXTT2=
EXTT3=
EXTT4=
EXTT5=
EXTT6=
EXTT7=
EXTT8=
EXTT9=
EXTT10=
EXTT11=
PLAYORDER=
